<svg xmlns="http://www.w3.org/2000/svg" xmlns:xlink="http://www.w3.org/1999/xlink" width="424pt" height="55pt" viewBox="0 0 424 55"><g id="graph0" class="graph" transform="scale(1 1) rotate(0) translate(4 51)"><title>import</title><polygon fill="#fff" stroke="none" points="-4 4 -4 -51 420 -51 420 4 -4 4"/><g id="node1" class="node"><title>pipeline_inputs</title><polygon fill="none" stroke="#000" points="0 -.5 0 -46.5 99 -46.5 99 -.5 0 -.5"/><text x="49.5" y="-31.3" font-family="Times New Roman,serif" font-size="14" text-anchor="middle">Pipeline Inputs</text><polyline fill="none" stroke="#000" points="0 -23.5 99 -23.5"/><text x="49.5" y="-8.3" font-family="Times New Roman,serif" font-size="14" text-anchor="middle">Image</text></g><g id="node3" class="node"><title>linear_colorspace</title><polygon fill="none" stroke="#000" points="135 -.5 135 -46.5 277 -46.5 277 -.5 135 -.5"/><text x="206" y="-31.3" font-family="Times New Roman,serif" font-size="14" text-anchor="middle">Linear Colorspace</text><polyline fill="none" stroke="#000" points="135 -23.5 277 -23.5"/><text x="168.5" y="-8.3" font-family="Times New Roman,serif" font-size="14" text-anchor="middle">in: Image</text><polyline fill="none" stroke="#000" points="202 -.5 202 -23.5"/><text x="239.5" y="-8.3" font-family="Times New Roman,serif" font-size="14" text-anchor="middle">out: Image</text></g><g id="edge1" class="edge"><title>pipeline_inputs:out-&gt;linear_colorspace:in</title><path fill="none" stroke="#000" d="M99,-11.5C111,-11.5 116.25,-11.5 124.875,-11.5"/><polygon fill="#000" stroke="#000" points="125 -15 135 -11.5 125 -8 125 -15"/></g><g id="node2" class="node"><title>pipeline_output</title><polygon fill="none" stroke="#000" points="313 -.5 313 -46.5 416 -46.5 416 -.5 313 -.5"/><text x="364.5" y="-31.3" font-family="Times New Roman,serif" font-size="14" text-anchor="middle">Pipeline Output</text><polyline fill="none" stroke="#000" points="313 -23.5 416 -23.5"/><text x="364.5" y="-8.3" font-family="Times New Roman,serif" font-size="14" text-anchor="middle">Inferred</text></g><g id="edge2" class="edge"><title>linear_colorspace:out-&gt;pipeline_output:in</title><path fill="none" stroke="#000" d="M277,-11.5C289,-11.5 294.25,-11.5 302.875,-11.5"/><polygon fill="#000" stroke="#000" points="303 -15 313 -11.5 303 -8 303 -15"/></g></g></svg>