<svg xmlns="http://www.w3.org/2000/svg" xmlns:xlink="http://www.w3.org/1999/xlink" width="1176" height="191pt" viewBox="0 0 882 190.5"><g id="graph0" class="graph" transform="scale(1 1) rotate(0) translate(4 186.5)"><title>import</title><polygon fill="#fff" stroke="none" points="-4 4 -4 -186.5 878 -186.5 878 4 -4 4"/><g id="node1" class="node"><title>pipeline_inputs</title><polygon fill="none" stroke="#000" points="0 -.5 0 -115.5 99 -115.5 99 -.5 0 -.5"/><text x="49.5" y="-100.3" font-family="Times New Roman,serif" font-size="14" text-anchor="middle">Pipeline Inputs</text><polyline fill="none" stroke="#000" points="0 -92.5 99 -92.5"/><text x="49.5" y="-77.3" font-family="Times New Roman,serif" font-size="14" text-anchor="middle">r: Image</text><polyline fill="none" stroke="#000" points="0 -69.5 99 -69.5"/><text x="49.5" y="-54.3" font-family="Times New Roman,serif" font-size="14" text-anchor="middle">g: Image</text><polyline fill="none" stroke="#000" points="0 -46.5 99 -46.5"/><text x="49.5" y="-31.3" font-family="Times New Roman,serif" font-size="14" text-anchor="middle">b: Image</text><polyline fill="none" stroke="#000" points="0 -23.5 99 -23.5"/><text x="49.5" y="-8.3" font-family="Times New Roman,serif" font-size="14" text-anchor="middle">a: Image</text></g><g id="node3" class="node"><title>image_combine</title><polygon fill="none" stroke="#000" points="338 -.5 338 -115.5 478 -115.5 478 -.5 338 -.5"/><text x="408" y="-100.3" font-family="Times New Roman,serif" font-size="14" text-anchor="middle">Image From Channels</text><polyline fill="none" stroke="#000" points="338 -92.5 478 -92.5"/><text x="370.5" y="-77.3" font-family="Times New Roman,serif" font-size="14" text-anchor="middle">r: Image</text><polyline fill="none" stroke="#000" points="338 -69.5 403 -69.5"/><text x="370.5" y="-54.3" font-family="Times New Roman,serif" font-size="14" text-anchor="middle">g: Image</text><polyline fill="none" stroke="#000" points="338 -46.5 403 -46.5"/><text x="370.5" y="-31.3" font-family="Times New Roman,serif" font-size="14" text-anchor="middle">b: Image</text><polyline fill="none" stroke="#000" points="338 -23.5 403 -23.5"/><text x="370.5" y="-8.3" font-family="Times New Roman,serif" font-size="14" text-anchor="middle">a: Image</text><polyline fill="none" stroke="#000" points="403 -.5 403 -92.5"/><text x="440.5" y="-42.8" font-family="Times New Roman,serif" font-size="14" text-anchor="middle">out: Image</text></g><g id="edge5" class="edge"><title>pipeline_inputs:out_b-&gt;image_combine:in_b</title><path fill="none" stroke="#000" d="M99,-35C201.799,-35 229.983,-35 327.973,-35"/><polygon fill="#000" stroke="#000" points="328 -38.5 338 -35 328 -31.5 328 -38.5"/></g><g id="edge6" class="edge"><title>pipeline_inputs:out_a-&gt;image_combine:in_a</title><path fill="none" stroke="#000" d="M99,-12C201.799,-12 229.983,-12 327.973,-12"/><polygon fill="#000" stroke="#000" points="328 -15.5 338 -12 328 -8.5 328 -15.5"/></g><g id="node4" class="node"><title>channel_select</title><polygon fill="none" stroke="#000" points="135 -55.5 135 -116.5 302 -116.5 302 -55.5 135 -55.5"/><text x="143" y="-101.3" font-family="Times New Roman,serif" font-size="14" text-anchor="start">Channel Select</text><text x="218.5" y="-86.3" font-family="Times New Roman,serif" font-size="14" text-anchor="middle">constant input: a [rgba/0-9]</text><polyline fill="none" stroke="#000" points="135 -78.5 302 -78.5"/><text x="174.5" y="-63.3" font-family="Times New Roman,serif" font-size="14" text-anchor="middle">in: Image</text><polyline fill="none" stroke="#000" points="214 -55.5 214 -78.5"/><text x="258" y="-63.3" font-family="Times New Roman,serif" font-size="14" text-anchor="middle">out: Image</text></g><g id="edge3" class="edge"><title>pipeline_inputs:out_g-&gt;channel_select:in</title><path fill="none" stroke="#000" d="M99,-58C111.498,-58 116.257,-63.1685 125.006,-65.672"/><polygon fill="#000" stroke="#000" points="124.626 -69.152 135 -67 125.548 -62.213 124.626 -69.152"/></g><g id="node5" class="node"><title>grayscale</title><polygon fill="none" stroke="#000" points="147.5 -136 147.5 -182 289.5 -182 289.5 -136 147.5 -136"/><text x="218.5" y="-166.8" font-family="Times New Roman,serif" font-size="14" text-anchor="middle">Grayscale</text><polyline fill="none" stroke="#000" points="147.5 -159 289.5 -159"/><text x="181" y="-143.8" font-family="Times New Roman,serif" font-size="14" text-anchor="middle">in: Image</text><polyline fill="none" stroke="#000" points="214.5 -136 214.5 -159"/><text x="252" y="-143.8" font-family="Times New Roman,serif" font-size="14" text-anchor="middle">out: Image</text></g><g id="edge1" class="edge"><title>pipeline_inputs:out_r-&gt;grayscale:in</title><path fill="none" stroke="#000" d="M99,-81C131.187,-81 115.052,-133.352 136.668,-144.804"/><polygon fill="#000" stroke="#000" points="135.978 -148.236 146.5 -147 137.503 -141.404 135.978 -148.236"/></g><g id="node2" class="node"><title>pipeline_output</title><polygon fill="none" stroke="#000" points="692 -34.5 692 -95.5 874 -95.5 874 -34.5 692 -34.5"/><text x="783" y="-80.3" font-family="Times New Roman,serif" font-size="14" text-anchor="middle">Pipeline Output</text><text x="783" y="-65.3" font-family="Times New Roman,serif" font-size="14" text-anchor="middle">AMBIGUOUS ASSETUUID</text><polyline fill="none" stroke="#000" points="692 -57.5 874 -57.5"/><text x="783" y="-42.3" font-family="Times New Roman,serif" font-size="14" text-anchor="middle">Inferred</text></g><g id="node6" class="node"><title>linear_colorspace</title><polygon fill="none" stroke="#000" points="514 -35 514 -81 656 -81 656 -35 514 -35"/><text x="585" y="-65.8" font-family="Times New Roman,serif" font-size="14" text-anchor="middle">Linear Colorspace</text><polyline fill="none" stroke="#000" points="514 -58 656 -58"/><text x="547.5" y="-42.8" font-family="Times New Roman,serif" font-size="14" text-anchor="middle">in: Image</text><polyline fill="none" stroke="#000" points="581 -35 581 -58"/><text x="618.5" y="-42.8" font-family="Times New Roman,serif" font-size="14" text-anchor="middle">out: Image</text></g><g id="edge7" class="edge"><title>image_combine:out-&gt;linear_colorspace:in</title><path fill="none" stroke="#000" d="M478,-46C490,-46 495.25,-46 503.875,-46"/><polygon fill="#000" stroke="#000" points="504 -49.5 514 -46 504 -42.5 504 -49.5"/></g><g id="edge4" class="edge"><title>channel_select:out-&gt;image_combine:in_g</title><path fill="none" stroke="#000" d="M302,-67C314.498,-67 319.257,-61.8315 328.006,-59.328"/><polygon fill="#000" stroke="#000" points="328.548 -62.787 338 -58 327.626 -55.848 328.548 -62.787"/></g><g id="edge2" class="edge"><title>grayscale:out-&gt;image_combine:in_r</title><path fill="none" stroke="#000" d="M290.5,-147C322.687,-147 306.552,-94.6479 328.168,-83.1959"/><polygon fill="#000" stroke="#000" points="329.003 -86.596 338 -81 327.478 -79.764 329.003 -86.596"/></g><g id="edge8" class="edge"><title>linear_colorspace:out-&gt;pipeline_output:in</title><path fill="none" stroke="#000" d="M656,-46C668,-46 673.25,-46 681.875,-46"/><polygon fill="#000" stroke="#000" points="682 -49.5 692 -46 682 -42.5 682 -49.5"/></g></g></svg>