<svg xmlns="http://www.w3.org/2000/svg" xmlns:xlink="http://www.w3.org/1999/xlink" width="1072" height="236pt" viewBox="0 0 804 236"><g id="graph0" class="graph" transform="scale(1 1) rotate(0) translate(4 232)"><title>import</title><polygon fill="#fff" stroke="none" points="-4 4 -4 -232 800 -232 800 4 -4 4"/><g id="clust1" class="cluster"><title>cluster_process_list</title><polygon fill="#d3d3d3" stroke="#d3d3d3" points="127 -78 127 -220 612 -220 612 -78 127 -78"/><text x="369.5" y="-204.8" font-family="Times New Roman,serif" font-size="14" text-anchor="middle">Process List</text></g><g id="node1" class="node"><title>pipeline_inputs</title><polygon fill="none" stroke="#000" points="0 -94 0 -140 99 -140 99 -94 0 -94"/><text x="49.5" y="-124.8" font-family="Times New Roman,serif" font-size="14" text-anchor="middle">Pipeline Inputs</text><polyline fill="none" stroke="#000" points="0 -117 99 -117"/><text x="49.5" y="-101.8" font-family="Times New Roman,serif" font-size="14" text-anchor="middle">List&lt;Image&gt;</text></g><g id="node6" class="node"><title>map_input</title><polygon fill="none" stroke="#000" points="135 -87 135 -123 373 -123 373 -87 135 -87"/><text x="192.5" y="-101.3" font-family="Times New Roman,serif" font-size="14" text-anchor="middle">in: List&lt;Inferred&gt;</text><polyline fill="none" stroke="#000" points="250 -87 250 -123"/><text x="311.5" y="-101.3" font-family="Times New Roman,serif" font-size="14" text-anchor="middle">out: List&lt;Inferred&gt;</text></g><g id="edge3" class="edge"><title>pipeline_inputs:out-&gt;map_input:in</title><path fill="none" stroke="#000" d="M99,-105C110.545,-105 115.664,-105 123.895,-105"/><polygon fill="#000" stroke="#000" points="124 -108.5 134 -105 124 -101.5 124 -108.5"/></g><g id="node2" class="node"><title>pipeline_output</title><polygon fill="none" stroke="#000" points="693 -13 693 -59 796 -59 796 -13 693 -13"/><text x="744.5" y="-43.8" font-family="Times New Roman,serif" font-size="14" text-anchor="middle">Pipeline Output</text><polyline fill="none" stroke="#000" points="693 -36 796 -36"/><text x="744.5" y="-20.8" font-family="Times New Roman,serif" font-size="14" text-anchor="middle">Inferred</text></g><g id="node3" class="node"><title>new_asset_uuid</title><polygon fill="none" stroke="#000" points="192.5 -17 192.5 -53 315.5 -53 315.5 -17 192.5 -17"/><text x="254" y="-31.3" font-family="Times New Roman,serif" font-size="14" text-anchor="middle">Generated AssetID</text></g><g id="node4" class="node"><title>spritesheet_gen</title><polygon fill="none" stroke="#000" points="409 -.5 409 -69.5 657 -69.5 657 -.5 409 -.5"/><text x="533" y="-54.3" font-family="Times New Roman,serif" font-size="14" text-anchor="middle">Spritesheet Generator</text><polyline fill="none" stroke="#000" points="409 -46.5 657 -46.5"/><text x="461" y="-31.3" font-family="Times New Roman,serif" font-size="14" text-anchor="middle">id: AssetUUID</text><polyline fill="none" stroke="#000" points="409 -23.5 513 -23.5"/><text x="461" y="-8.3" font-family="Times New Roman,serif" font-size="14" text-anchor="middle">in: List&lt;Image&gt;</text><polyline fill="none" stroke="#000" points="513 -.5 513 -46.5"/><text x="585" y="-31.3" font-family="Times New Roman,serif" font-size="14" text-anchor="middle">spritesheet: Spritesheet</text><polyline fill="none" stroke="#000" points="513 -23.5 657 -23.5"/><text x="585" y="-8.3" font-family="Times New Roman,serif" font-size="14" text-anchor="middle">sprites: List&lt;Sprite&gt;</text></g><g id="edge5" class="edge"><title>new_asset_uuid-&gt;spritesheet_gen:id_in</title><path fill="none" stroke="#000" d="M315.708,-35C340.954,-35 370.842,-35 398.8,-35"/><polygon fill="#000" stroke="#000" points="399 -38.5 409 -35 399 -31.5 399 -38.5"/></g><g id="edge6" class="edge"><title>spritesheet_gen:out-&gt;pipeline_output:in</title><path fill="none" stroke="#000" d="M657,-35C669.678,-35 674.207,-28.6829 682.938,-25.6231"/><polygon fill="#000" stroke="#000" points="683.685 -29.048 693 -24 682.57 -22.137 683.685 -29.048"/></g><g id="edge7" class="edge"><title>spritesheet_gen:sprites_out-&gt;pipeline_output:in</title><path fill="none" stroke="#000" d="M657,-12C669.781,-12 674.179,-18.8914 682.9,-22.2294"/><polygon fill="#000" stroke="#000" points="682.546 -25.721 693 -24 683.755 -18.826 682.546 -25.721"/></g><g id="node5" class="node"><title>iter</title><polygon fill="none" stroke="#000" points="199 -142 199 -188 309 -188 309 -142 199 -142"/><text x="254" y="-172.8" font-family="Times New Roman,serif" font-size="14" text-anchor="middle">iter_in: Inferred</text><polyline fill="none" stroke="#000" points="199 -165 309 -165"/><text x="254" y="-149.8" font-family="Times New Roman,serif" font-size="14" text-anchor="middle">iter_out: Inferred</text></g><g id="node7" class="node"><title>linear_colorspace</title><polygon fill="none" stroke="#000" points="462 -142 462 -188 604 -188 604 -142 462 -142"/><text x="533" y="-172.8" font-family="Times New Roman,serif" font-size="14" text-anchor="middle">Linear Colorspace</text><polyline fill="none" stroke="#000" points="462 -165 604 -165"/><text x="495.5" y="-149.8" font-family="Times New Roman,serif" font-size="14" text-anchor="middle">in: Image</text><polyline fill="none" stroke="#000" points="529 -142 529 -165"/><text x="566.5" y="-149.8" font-family="Times New Roman,serif" font-size="14" text-anchor="middle">out: Image</text></g><g id="edge1" class="edge"><title>iter:in-&gt;linear_colorspace:in</title><path fill="none" stroke="#000" d="M310,-177C374.37,-177 391.308,-155.465 450.675,-153.193"/><polygon fill="#000" stroke="#000" points="451.067 -156.687 461 -153 450.936 -149.688 451.067 -156.687"/></g><g id="edge4" class="edge"><title>map_input:out-&gt;spritesheet_gen:in</title><path fill="none" stroke="#000" d="M373,-105C413.167,-105 373.696,-28.6201 398.931,-14.2989"/><polygon fill="#000" stroke="#000" points="400.03 -17.638 409 -12 398.472 -10.814 400.03 -17.638"/></g><g id="edge2" class="edge"><title>linear_colorspace:out-&gt;iter:out</title><path fill="none" stroke="#000" d="M567,-141C567,-30.0033 432.583,-145.803 320.119,-152.684"/><polygon fill="#000" stroke="#000" points="319.886 -149.189 310 -153 320.104 -156.186 319.886 -149.189"/></g></g></svg>