<svg xmlns="http://www.w3.org/2000/svg" xmlns:xlink="http://www.w3.org/1999/xlink" width="976pt" height="55pt" viewBox="0 0 976 55"><g id="graph0" class="graph" transform="scale(1 1) rotate(0) translate(4 51)"><title>import</title><polygon fill="#fff" stroke="none" points="-4 4 -4 -51 972 -51 972 4 -4 4"/><g id="node1" class="node"><title>pipeline_inputs</title><polygon fill="none" stroke="#000" points="0 -.5 0 -46.5 99 -46.5 99 -.5 0 -.5"/><text x="49.5" y="-31.3" font-family="Times New Roman,serif" font-size="14" text-anchor="middle">Pipeline Inputs</text><polyline fill="none" stroke="#000" points="0 -23.5 99 -23.5"/><text x="49.5" y="-8.3" font-family="Times New Roman,serif" font-size="14" text-anchor="middle">Mesh</text></g><g id="node3" class="node"><title>mesh_index</title><polygon fill="none" stroke="#000" points="135 -.5 135 -46.5 271 -46.5 271 -.5 135 -.5"/><text x="203" y="-31.3" font-family="Times New Roman,serif" font-size="14" text-anchor="middle">Index Mesh Vertices</text><polyline fill="none" stroke="#000" points="135 -23.5 271 -23.5"/><text x="167" y="-8.3" font-family="Times New Roman,serif" font-size="14" text-anchor="middle">in: Mesh</text><polyline fill="none" stroke="#000" points="199 -.5 199 -23.5"/><text x="235" y="-8.3" font-family="Times New Roman,serif" font-size="14" text-anchor="middle">out: Mesh</text></g><g id="edge1" class="edge"><title>pipeline_inputs:out-&gt;mesh_index:in</title><path fill="none" stroke="#000" d="M99,-11.5C111,-11.5 116.25,-11.5 124.875,-11.5"/><polygon fill="#000" stroke="#000" points="125 -15 135 -11.5 125 -8 125 -15"/></g><g id="node2" class="node"><title>pipeline_output</title><polygon fill="none" stroke="#000" points="865 -.5 865 -46.5 968 -46.5 968 -.5 865 -.5"/><text x="916.5" y="-31.3" font-family="Times New Roman,serif" font-size="14" text-anchor="middle">Pipeline Output</text><polyline fill="none" stroke="#000" points="865 -23.5 968 -23.5"/><text x="916.5" y="-8.3" font-family="Times New Roman,serif" font-size="14" text-anchor="middle">Inferred</text></g><g id="node4" class="node"><title>vertex_cache_opt</title><polygon fill="none" stroke="#000" points="307 -.5 307 -46.5 474 -46.5 474 -.5 307 -.5"/><text x="390.5" y="-31.3" font-family="Times New Roman,serif" font-size="14" text-anchor="middle">Vertex Cache Optimization</text><polyline fill="none" stroke="#000" points="307 -23.5 474 -23.5"/><text x="346.5" y="-8.3" font-family="Times New Roman,serif" font-size="14" text-anchor="middle">in: Mesh</text><polyline fill="none" stroke="#000" points="386 -.5 386 -23.5"/><text x="430" y="-8.3" font-family="Times New Roman,serif" font-size="14" text-anchor="middle">out: Mesh</text></g><g id="edge2" class="edge"><title>mesh_index:out-&gt;vertex_cache_opt:in</title><path fill="none" stroke="#000" d="M271,-11.5C283,-11.5 288.25,-11.5 296.875,-11.5"/><polygon fill="#000" stroke="#000" points="297 -15 307 -11.5 297 -8 297 -15"/></g><g id="node5" class="node"><title>overdraw_optimization</title><polygon fill="none" stroke="#000" points="510 -.5 510 -46.5 657 -46.5 657 -.5 510 -.5"/><text x="583.5" y="-31.3" font-family="Times New Roman,serif" font-size="14" text-anchor="middle">Overdraw Optimization</text><polyline fill="none" stroke="#000" points="510 -23.5 657 -23.5"/><text x="544.5" y="-8.3" font-family="Times New Roman,serif" font-size="14" text-anchor="middle">in: Mesh</text><polyline fill="none" stroke="#000" points="579 -.5 579 -23.5"/><text x="618" y="-8.3" font-family="Times New Roman,serif" font-size="14" text-anchor="middle">out: Mesh</text></g><g id="edge3" class="edge"><title>vertex_cache_opt:out-&gt;overdraw_optimization:in</title><path fill="none" stroke="#000" d="M474,-11.5C486,-11.5 491.25,-11.5 499.875,-11.5"/><polygon fill="#000" stroke="#000" points="500 -15 510 -11.5 500 -8 500 -15"/></g><g id="node6" class="node"><title>vertex_quantization</title><polygon fill="none" stroke="#000" points="693 -.5 693 -46.5 829 -46.5 829 -.5 693 -.5"/><text x="761" y="-31.3" font-family="Times New Roman,serif" font-size="14" text-anchor="middle">Vertex Quantization</text><polyline fill="none" stroke="#000" points="693 -23.5 829 -23.5"/><text x="725" y="-8.3" font-family="Times New Roman,serif" font-size="14" text-anchor="middle">in: Mesh</text><polyline fill="none" stroke="#000" points="757 -.5 757 -23.5"/><text x="793" y="-8.3" font-family="Times New Roman,serif" font-size="14" text-anchor="middle">out: Mesh</text></g><g id="edge4" class="edge"><title>overdraw_optimization:out-&gt;vertex_quantization:in</title><path fill="none" stroke="#000" d="M657,-11.5C669,-11.5 674.25,-11.5 682.875,-11.5"/><polygon fill="#000" stroke="#000" points="683 -15 693 -11.5 683 -8 683 -15"/></g><g id="edge5" class="edge"><title>vertex_quantization:out-&gt;pipeline_output:in</title><path fill="none" stroke="#000" d="M829,-11.5C841,-11.5 846.25,-11.5 854.875,-11.5"/><polygon fill="#000" stroke="#000" points="855 -15 865 -11.5 855 -8 855 -15"/></g></g></svg>