<svg xmlns="http://www.w3.org/2000/svg" xmlns:xlink="http://www.w3.org/1999/xlink" width="233pt" height="440pt" viewBox="0 0 233.19 440"><g id="graph0" class="graph" transform="scale(1 1) rotate(0) translate(4 436)"><title>import</title><polygon fill="#fff" stroke="none" points="-4 4 -4 -436 229.19 -436 229.19 4 -4 4"/><g id="node1" class="node"><title>intermediate</title><polygon fill="none" stroke="#000" points="45.544 -395.5 45.544 -431.5 209.544 -431.5 209.544 -395.5 45.544 -395.5"/><text x="127.544" y="-409.8" font-family="Times New Roman,serif" font-size="14" text-anchor="middle">Asset Intermediate Format</text></g><g id="node2" class="node"><title>pipeline</title><ellipse cx="127.544" cy="-341" fill="none" stroke="#000" rx="81.486" ry="18"/><text x="127.544" y="-337.3" font-family="Times New Roman,serif" font-size="14" text-anchor="middle">Processing Pipeline</text></g><g id="edge1" class="edge"><title>intermediate-&gt;pipeline</title><path fill="none" stroke="#000" d="M127.544,-395.434C127.544,-387.67 127.544,-378.284 127.544,-369.56"/><polygon fill="#000" stroke="#000" points="131.044 -369.399 127.544 -359.399 124.044 -369.399 131.044 -369.399"/></g><g id="node3" class="node"><title>build_artifact</title><polygon fill="none" stroke="#000" points="64.044 -217.5 64.044 -286.5 191.044 -286.5 191.044 -217.5 64.044 -217.5"/><text x="127.544" y="-271.3" font-family="Times New Roman,serif" font-size="14" text-anchor="middle">Asset Build Artifact</text><polyline fill="none" stroke="#000" points="64.044 -263.5 191.044 -263.5"/><text x="127.544" y="-248.3" font-family="Times New Roman,serif" font-size="14" text-anchor="middle">Engine TypeUUID</text><polyline fill="none" stroke="#000" points="64.044 -240.5 191.044 -240.5"/><text x="127.544" y="-225.3" font-family="Times New Roman,serif" font-size="14" text-anchor="middle">Data</text></g><g id="edge2" class="edge"><title>pipeline-&gt;build_artifact</title><path fill="none" stroke="#000" d="M127.544,-322.812C127.544,-315.328 127.544,-306.18 127.544,-297.002"/><polygon fill="#000" stroke="#000" points="131.044 -296.714 127.544 -286.714 124.044 -296.714 131.044 -296.714"/></g><g id="node5" class="node"><title>build_cache</title><ellipse cx="70.544" cy="-163" fill="none" stroke="#000" rx="55.491" ry="18"/><text x="70.544" y="-159.3" font-family="Times New Roman,serif" font-size="14" text-anchor="middle">Build Cache</text></g><g id="edge6" class="edge"><title>build_artifact-&gt;build_cache</title><path fill="none" stroke="#000" d="M105.343,-217.114C99.3109,-207.908 92.8826,-198.096 87.2135,-189.443"/><polygon fill="#000" stroke="#000" points="90.037 -187.366 81.629 -180.92 84.182 -191.202 90.037 -187.366"/></g><g id="node7" class="node"><title>packing</title><ellipse cx="185.544" cy="-163" fill="none" stroke="#000" rx="39.794" ry="18"/><text x="185.544" y="-159.3" font-family="Times New Roman,serif" font-size="14" text-anchor="middle">Packing</text></g><g id="edge3" class="edge"><title>build_artifact-&gt;packing</title><path fill="none" stroke="#000" d="M150.134,-217.114C156.432,-207.668 163.155,-197.584 169.031,-188.769"/><polygon fill="#000" stroke="#000" points="171.944 -190.709 174.579 -180.447 166.12 -186.826 171.944 -190.709"/></g><g id="node4" class="node"><title>pack_file</title><polygon fill="none" stroke="#000" points="157.044 -72.5 157.044 -108.5 218.044 -108.5 218.044 -72.5 157.044 -72.5"/><text x="187.544" y="-86.8" font-family="Times New Roman,serif" font-size="14" text-anchor="middle">Packfile</text></g><g id="node6" class="node"><title>engine</title><ellipse cx="128.544" cy="-18" fill="none" stroke="#000" rx="35.194" ry="18"/><text x="128.544" y="-14.3" font-family="Times New Roman,serif" font-size="14" text-anchor="middle">Engine</text></g><g id="edge5" class="edge"><title>pack_file-&gt;engine</title><path fill="none" stroke="#000" d="M173.262,-72.4339C165.801,-63.5196 156.553,-52.4687 148.406,-42.7341"/><polygon fill="#000" stroke="#000" points="150.988 -40.365 141.886 -34.943 145.62 -44.858 150.988 -40.365"/></g><g id="node8" class="node"><title>asset_hub_api</title><ellipse cx="69.544" cy="-90.5" fill="none" stroke="#000" rx="69.588" ry="18"/><text x="69.544" y="-86.8" font-family="Times New Roman,serif" font-size="14" text-anchor="middle">Asset Hub RPC</text></g><g id="edge7" class="edge"><title>build_cache-&gt;asset_hub_api</title><path fill="none" stroke="#000" d="M70.3018,-144.934C70.1916,-137.17 70.0585,-127.784 69.9347,-119.06"/><polygon fill="#000" stroke="#000" points="73.432 -118.848 69.791 -108.899 66.433 -118.947 73.432 -118.848"/></g><g id="edge4" class="edge"><title>packing-&gt;pack_file</title><path fill="none" stroke="#000" d="M186.028,-144.934C186.248,-137.17 186.514,-127.784 186.762,-119.06"/><polygon fill="#000" stroke="#000" points="190.265 -118.994 187.05 -108.899 183.268 -118.795 190.265 -118.994"/></g><g id="edge8" class="edge"><title>asset_hub_api-&gt;engine</title><path fill="none" stroke="#000" d="M83.526,-72.7925C90.9802,-63.8853 100.282,-52.77 108.493,-42.9593"/><polygon fill="#000" stroke="#000" points="111.334 -45.017 115.068 -35.102 105.966 -40.525 111.334 -45.017"/></g></g></svg>