<svg xmlns="http://www.w3.org/2000/svg" xmlns:xlink="http://www.w3.org/1999/xlink" width="220pt" height="490pt" viewBox="0 0 220 489.74"><g id="graph0" class="graph" transform="scale(1 1) rotate(0) translate(4 485.74)"><title>import</title><polygon fill="#fff" stroke="none" points="-4 4 -4 -485.74 216 -485.74 216 4 -4 4"/><g id="node1" class="node"><title>source_file</title><text x="64" y="-460.04" font-family="Times New Roman,serif" font-size="14" text-anchor="middle">Source File</text></g><g id="node3" class="node"><title>file_asset_source</title><ellipse cx="106" cy="-391.74" fill="none" stroke="#000" rx="75.287" ry="18"/><text x="106" y="-388.04" font-family="Times New Roman,serif" font-size="14" text-anchor="middle">File Asset Source</text></g><g id="edge1" class="edge"><title>source_file-&gt;file_asset_source</title><path fill="none" stroke="#000" d="M74.382,-445.437C79.2647,-437.299 85.1866,-427.429 90.5792,-418.441"/><polygon fill="#000" stroke="#000" points="93.594 -420.22 95.737 -409.844 87.591 -416.619 93.594 -420.22"/></g><g id="node2" class="node"><title>source_file_metadata</title><text x="149" y="-460.04" font-family="Times New Roman,serif" font-size="14" text-anchor="middle">.meta</text></g><g id="edge5" class="edge"><title>source_file_metadata-&gt;file_asset_source</title><path fill="none" stroke="#000" d="M138.371,-445.437C133.372,-437.299 127.309,-427.429 121.788,-418.441"/><polygon fill="#000" stroke="#000" points="124.723 -416.533 116.507 -409.844 118.759 -420.197 124.723 -416.533"/></g><g id="node4" class="node"><title>importer_input</title><polygon fill="none" stroke="#000" points=".5 -291.24 .5 -337.24 211.5 -337.24 211.5 -291.24 .5 -291.24"/><text x="57.5" y="-322.04" font-family="Times New Roman,serif" font-size="14" text-anchor="middle">Importer Options</text><polyline fill="none" stroke="#000" points="114.5 -314.24 114.5 -337.24"/><text x="163" y="-322.04" font-family="Times New Roman,serif" font-size="14" text-anchor="middle">Importer State</text><polyline fill="none" stroke="#000" points=".5 -314.24 211.5 -314.24"/><text x="106" y="-299.04" font-family="Times New Roman,serif" font-size="14" text-anchor="middle">Source File</text></g><g id="edge2" class="edge"><title>file_asset_source-&gt;importer_input</title><path fill="none" stroke="#000" d="M106,-373.608C106,-365.915 106,-356.575 106,-347.642"/><polygon fill="#000" stroke="#000" points="109.5 -347.467 106 -337.467 102.5 -347.467 109.5 -347.467"/></g><g id="node6" class="node"><title>importer</title><ellipse cx="106" cy="-236.74" fill="none" stroke="#000" rx="42.494" ry="18"/><text x="106" y="-233.04" font-family="Times New Roman,serif" font-size="14" text-anchor="middle">Importer</text></g><g id="edge3" class="edge"><title>importer_input-&gt;importer</title><path fill="none" stroke="#000" d="M106,-290.996C106,-282.922 106,-273.702 106,-265.229"/><polygon fill="#000" stroke="#000" points="109.5 -265.038 106 -255.038 102.5 -265.038 109.5 -265.038"/></g><g id="node5" class="node"><title>intermediate</title><polygon fill="none" stroke="#000" points="0 -90.24 0 -182.24 212 -182.24 212 -90.24 0 -90.24"/><text x="106" y="-167.04" font-family="Times New Roman,serif" font-size="14" text-anchor="middle">Asset Intermediate Format</text><polyline fill="none" stroke="#000" points="0 -159.24 212 -159.24"/><text x="15.5" y="-144.04" font-family="Times New Roman,serif" font-size="14" text-anchor="middle">ID</text><polyline fill="none" stroke="#000" points="31 -136.24 31 -159.24"/><text x="74" y="-144.04" font-family="Times New Roman,serif" font-size="14" text-anchor="middle">Search Tags</text><polyline fill="none" stroke="#000" points="117 -136.24 117 -159.24"/><text x="164.5" y="-144.04" font-family="Times New Roman,serif" font-size="14" text-anchor="middle">Dependencies</text><polyline fill="none" stroke="#000" points="0 -136.24 212 -136.24"/><text x="106" y="-121.04" font-family="Times New Roman,serif" font-size="14" text-anchor="middle">Processing Pipeline</text><polyline fill="none" stroke="#000" points="0 -113.24 212 -113.24"/><text x="106" y="-98.04" font-family="Times New Roman,serif" font-size="14" text-anchor="middle">Data</text></g><g id="node7" class="node"><title>asset_hub</title><ellipse cx="106" cy="-26.87" fill="none" stroke="#000" rx="53.981" ry="26.741"/><text x="106" y="-30.67" font-family="Times New Roman,serif" font-size="14" text-anchor="middle">Asset Hub</text><text x="106" y="-15.67" font-family="Times New Roman,serif" font-size="14" text-anchor="middle">(indexing)</text></g><g id="edge8" class="edge"><title>intermediate-&gt;asset_hub</title><path fill="none" stroke="#000" d="M106,-90.0167C106,-81.3126 106,-72.3039 106,-63.9374"/><polygon fill="#000" stroke="#000" points="109.5 -63.754 106 -53.754 102.5 -63.754 109.5 -63.754"/></g><g id="edge4" class="edge"><title>importer-&gt;intermediate</title><path fill="none" stroke="#000" d="M95.566,-219.031C93.8768,-211.535 92.8856,-202.22 92.5924,-192.588"/><polygon fill="#000" stroke="#000" points="96.092 -192.481 92.54 -182.499 89.092 -192.517 96.092 -192.481"/></g><g id="edge6" class="edge"><title>importer-&gt;intermediate</title><path fill="none" stroke="#000" d="M106,-218.583C106,-211.216 106,-202.152 106,-192.779"/><polygon fill="#000" stroke="#000" points="109.5 -192.553 106 -182.553 102.5 -192.553 109.5 -192.553"/></g><g id="edge7" class="edge"><title>importer-&gt;intermediate</title><path fill="none" stroke="#000" d="M116.434,-219.031C118.123,-211.535 119.114,-202.22 119.408,-192.588"/><polygon fill="#000" stroke="#000" points="122.908 -192.517 119.461 -182.499 115.908 -192.481 122.908 -192.517"/></g></g></svg>