<svg xmlns="http://www.w3.org/2000/svg" xmlns:xlink="http://www.w3.org/1999/xlink" width="760pt" height="166pt" viewBox="0 0 759.58 166"><g id="graph0" class="graph" transform="scale(1 1) rotate(0) translate(4 162)"><title>import</title><polygon fill="#fff" stroke="none" points="-4 4 -4 -162 755.582 -162 755.582 4 -4 4"/><g id="node1" class="node"><title>intermediate</title><polygon fill="none" stroke="#000" points="0 -68 0 -114 164 -114 164 -68 0 -68"/><text x="82" y="-98.8" font-family="Times New Roman,serif" font-size="14" text-anchor="middle">Asset Intermediate Format</text><polyline fill="none" stroke="#000" points="0 -91 164 -91"/><text x="82" y="-75.8" font-family="Times New Roman,serif" font-size="14" text-anchor="middle">Data</text></g><g id="node4" class="node"><title>graph_node1</title><polygon fill="none" stroke="#000" points="200 -44.5 200 -113.5 341 -113.5 341 -44.5 200 -44.5"/><text x="270.5" y="-98.3" font-family="Times New Roman,serif" font-size="14" text-anchor="middle">Graph Node</text><polyline fill="none" stroke="#000" points="200 -90.5 341 -90.5"/><text x="232.5" y="-75.3" font-family="Times New Roman,serif" font-size="14" text-anchor="middle">Inputs</text><polyline fill="none" stroke="#000" points="265 -67.5 265 -90.5"/><text x="303" y="-75.3" font-family="Times New Roman,serif" font-size="14" text-anchor="middle">Outputs</text><polyline fill="none" stroke="#000" points="200 -67.5 341 -67.5"/><text x="270.5" y="-52.3" font-family="Times New Roman,serif" font-size="14" text-anchor="middle">Generated Asset Slots</text></g><g id="edge1" class="edge"><title>intermediate:data-&gt;graph_node1:in</title><path fill="none" stroke="#000" d="M164,-79C176,-79 181.25,-79 189.875,-79"/><polygon fill="#000" stroke="#000" points="190 -82.5 200 -79 190 -75.5 190 -82.5"/></g><g id="node2" class="node"><title>platform_backend1</title><ellipse cx="652.791" cy="-114" fill="none" stroke="#000" rx="98.583" ry="18"/><text x="652.791" y="-110.3" font-family="Times New Roman,serif" font-size="14" text-anchor="middle">Asset Platform Backend</text></g><g id="node3" class="node"><title>platform_backend2</title><ellipse cx="652.791" cy="-52" fill="none" stroke="#000" rx="98.583" ry="18"/><text x="652.791" y="-48.3" font-family="Times New Roman,serif" font-size="14" text-anchor="middle">Asset Platform Backend</text></g><g id="node5" class="node"><title>graph_node2</title><polygon fill="none" stroke="#000" points="377 -88.5 377 -157.5 518 -157.5 518 -88.5 377 -88.5"/><text x="447.5" y="-142.3" font-family="Times New Roman,serif" font-size="14" text-anchor="middle">Graph Node</text><polyline fill="none" stroke="#000" points="377 -134.5 518 -134.5"/><text x="409.5" y="-119.3" font-family="Times New Roman,serif" font-size="14" text-anchor="middle">Inputs</text><polyline fill="none" stroke="#000" points="442 -111.5 442 -134.5"/><text x="480" y="-119.3" font-family="Times New Roman,serif" font-size="14" text-anchor="middle">Outputs</text><polyline fill="none" stroke="#000" points="377 -111.5 518 -111.5"/><text x="447.5" y="-96.3" font-family="Times New Roman,serif" font-size="14" text-anchor="middle">Generated Asset Slots</text></g><g id="edge2" class="edge"><title>graph_node1:out-&gt;graph_node2:in</title><path fill="none" stroke="#000" d="M341,-79C362.122,-79 355.431,-109.747 367.426,-119.836"/><polygon fill="#000" stroke="#000" points="366.407 -123.185 377 -123 368.604 -116.538 366.407 -123.185"/></g><g id="node6" class="node"><title>graph_node3</title><polygon fill="none" stroke="#000" points="377 -.5 377 -69.5 518 -69.5 518 -.5 377 -.5"/><text x="447.5" y="-54.3" font-family="Times New Roman,serif" font-size="14" text-anchor="middle">Graph Node</text><polyline fill="none" stroke="#000" points="377 -46.5 518 -46.5"/><text x="409.5" y="-31.3" font-family="Times New Roman,serif" font-size="14" text-anchor="middle">Inputs</text><polyline fill="none" stroke="#000" points="442 -23.5 442 -46.5"/><text x="480" y="-31.3" font-family="Times New Roman,serif" font-size="14" text-anchor="middle">Outputs</text><polyline fill="none" stroke="#000" points="377 -23.5 518 -23.5"/><text x="447.5" y="-8.3" font-family="Times New Roman,serif" font-size="14" text-anchor="middle">Generated Asset Slots</text></g><g id="edge3" class="edge"><title>graph_node1:out-&gt;graph_node3:in</title><path fill="none" stroke="#000" d="M341,-79C362.122,-79 355.431,-48.2532 367.426,-38.1644"/><polygon fill="#000" stroke="#000" points="368.604 -41.462 377 -35 366.407 -34.815 368.604 -41.462"/></g><g id="edge4" class="edge"><title>graph_node2:out-&gt;platform_backend1</title><path fill="none" stroke="#000" d="M518,-123C529.254,-123 541.028,-122.679 552.724,-122.158"/><polygon fill="#000" stroke="#000" points="553.153 -125.642 562.968 -121.653 552.808 -118.65 553.153 -125.642"/></g><g id="edge5" class="edge"><title>graph_node2:out-&gt;platform_backend2</title><path fill="none" stroke="#000" d="M518,-123C540.627,-123 534.884,-99.1065 554,-87 564.176,-80.5555 575.699,-75.0912 587.174,-70.5343"/><polygon fill="#000" stroke="#000" points="588.648 -73.719 596.771 -66.918 586.179 -67.169 588.648 -73.719"/></g><g id="edge7" class="edge"><title>graph_node3:out-&gt;platform_backend1</title><path fill="none" stroke="#000" d="M518,-35C543.267,-35 533.354,-64.4347 554,-79 563.402,-85.6328 574.193,-91.1335 585.095,-95.6545"/><polygon fill="#000" stroke="#000" points="584.085 -99.017 594.673 -99.379 586.622 -92.493 584.085 -99.017"/></g><g id="edge6" class="edge"><title>graph_node3:out-&gt;platform_backend2</title><path fill="none" stroke="#000" d="M518,-35C535.126,-35 553.388,-36.3878 570.739,-38.3704"/><polygon fill="#000" stroke="#000" points="570.483 -41.865 580.833 -39.6 571.33 -34.916 570.483 -41.865"/></g></g></svg>