<svg xmlns="http://www.w3.org/2000/svg" xmlns:xlink="http://www.w3.org/1999/xlink" width="536pt" height="376" viewBox="0 0 536 282"><g id="graph0" class="graph" transform="scale(1 1) rotate(0) translate(4 278)"><title>import</title><polygon fill="#fff" stroke="none" points="-4 4 -4 -278 532 -278 532 4 -4 4"/><g id="node1" class="node"><title>image1</title><polygon fill="none" stroke="#000" points="0 -227.5 0 -273.5 164 -273.5 164 -227.5 0 -227.5"/><text x="82" y="-258.3" font-family="Times New Roman,serif" font-size="14" text-anchor="middle">Asset Intermediate Format</text><polyline fill="none" stroke="#000" points="0 -250.5 164 -250.5"/><text x="82" y="-235.3" font-family="Times New Roman,serif" font-size="14" text-anchor="middle">Image 1</text></g><g id="node4" class="node"><title>spritesheet_generator</title><ellipse cx="264" cy="-173" fill="none" stroke="#000" rx="89.084" ry="18"/><text x="264" y="-169.3" font-family="Times New Roman,serif" font-size="14" text-anchor="middle">Spritesheet Generator</text></g><g id="edge1" class="edge"><title>image1-&gt;spritesheet_generator</title><path fill="none" stroke="#000" d="M135.131,-227.459C161.181,-216.653 192.27,-203.756 217.386,-193.337"/><polygon fill="#000" stroke="#000" points="218.8 -196.54 226.696 -189.475 216.118 -190.074 218.8 -196.54"/></g><g id="node2" class="node"><title>image2</title><polygon fill="none" stroke="#000" points="182 -227.5 182 -273.5 346 -273.5 346 -227.5 182 -227.5"/><text x="264" y="-258.3" font-family="Times New Roman,serif" font-size="14" text-anchor="middle">Asset Intermediate Format</text><polyline fill="none" stroke="#000" points="182 -250.5 346 -250.5"/><text x="264" y="-235.3" font-family="Times New Roman,serif" font-size="14" text-anchor="middle">Image 2</text></g><g id="edge2" class="edge"><title>image2-&gt;spritesheet_generator</title><path fill="none" stroke="#000" d="M264,-227.256C264,-219.182 264,-209.962 264,-201.489"/><polygon fill="#000" stroke="#000" points="267.5 -201.298 264 -191.298 260.5 -201.298 267.5 -201.298"/></g><g id="node3" class="node"><title>image3</title><polygon fill="none" stroke="#000" points="364 -227.5 364 -273.5 528 -273.5 528 -227.5 364 -227.5"/><text x="446" y="-258.3" font-family="Times New Roman,serif" font-size="14" text-anchor="middle">Asset Intermediate Format</text><polyline fill="none" stroke="#000" points="364 -250.5 528 -250.5"/><text x="446" y="-235.3" font-family="Times New Roman,serif" font-size="14" text-anchor="middle">Image 3</text></g><g id="edge3" class="edge"><title>image3-&gt;spritesheet_generator</title><path fill="none" stroke="#000" d="M392.869,-227.459C366.819,-216.653 335.73,-203.756 310.614,-193.337"/><polygon fill="#000" stroke="#000" points="311.882 -190.074 301.304 -189.475 309.2 -196.54 311.882 -190.074"/></g><g id="node5" class="node"><title>intermediate1</title><polygon fill="none" stroke="#000" points="182 -72.5 182 -118.5 346 -118.5 346 -72.5 182 -72.5"/><text x="264" y="-103.3" font-family="Times New Roman,serif" font-size="14" text-anchor="middle">Asset Intermediate Format</text><polyline fill="none" stroke="#000" points="182 -95.5 346 -95.5"/><text x="264" y="-80.3" font-family="Times New Roman,serif" font-size="14" text-anchor="middle">Spritesheet</text></g><g id="edge4" class="edge"><title>spritesheet_generator-&gt;intermediate1</title><path fill="none" stroke="#000" d="M264,-154.868C264,-147.175 264,-137.835 264,-128.902"/><polygon fill="#000" stroke="#000" points="267.5 -128.727 264 -118.727 260.5 -128.727 267.5 -128.727"/></g><g id="node6" class="node"><title>platform_backend</title><ellipse cx="264" cy="-18" fill="none" stroke="#000" rx="118.079" ry="18"/><text x="264" y="-14.3" font-family="Times New Roman,serif" font-size="14" text-anchor="middle">Spritesheet Platform Backend</text></g><g id="edge5" class="edge"><title>intermediate1-&gt;platform_backend</title><path fill="none" stroke="#000" d="M264,-72.2559C264,-64.1817 264,-54.962 264,-46.4888"/><polygon fill="#000" stroke="#000" points="267.5 -46.297 264 -36.298 260.5 -46.298 267.5 -46.297"/></g></g></svg>