<svg xmlns="http://www.w3.org/2000/svg" xmlns:xlink="http://www.w3.org/1999/xlink" width="206pt" height="472pt" viewBox="0 0 205.58 472.48"><g id="graph0" class="graph" transform="scale(1 1) rotate(0) translate(4 468.48)"><title>import</title><polygon fill="#fff" stroke="none" points="-4 4 -4 -468.48 201.582 -468.48 201.582 4 -4 4"/><g id="node1" class="node"><title>intermediate</title><polygon fill="none" stroke="#000" points="16.791 -417.98 16.791 -463.98 180.791 -463.98 180.791 -417.98 16.791 -417.98"/><text x="98.791" y="-448.78" font-family="Times New Roman,serif" font-size="14" text-anchor="middle">Asset Intermediate Format</text><polyline fill="none" stroke="#000" points="16.791 -440.98 180.791 -440.98"/><text x="98.791" y="-425.78" font-family="Times New Roman,serif" font-size="14" text-anchor="middle">MeshData</text></g><g id="node4" class="node"><title>mesh_indexing</title><ellipse cx="98.791" cy="-354.61" fill="none" stroke="#000" rx="96.333" ry="26.741"/><text x="98.791" y="-358.41" font-family="Times New Roman,serif" font-size="14" text-anchor="middle">Mesh Indexing</text><text x="98.791" y="-343.41" font-family="Times New Roman,serif" font-size="14" text-anchor="middle">(creates index buffer)</text></g><g id="edge1" class="edge"><title>intermediate-&gt;mesh_indexing</title><path fill="none" stroke="#000" d="M98.7912,-417.813C98.7912,-409.812 98.7912,-400.561 98.7912,-391.679"/><polygon fill="#000" stroke="#000" points="102.291 -391.519 98.791 -381.519 95.291 -391.519 102.291 -391.519"/></g><g id="node2" class="node"><title>intermediate2</title><polygon fill="none" stroke="#000" points="16.791 -245.24 16.791 -291.24 180.791 -291.24 180.791 -245.24 16.791 -245.24"/><text x="98.791" y="-276.04" font-family="Times New Roman,serif" font-size="14" text-anchor="middle">Asset Intermediate Format</text><polyline fill="none" stroke="#000" points="16.791 -268.24 180.791 -268.24"/><text x="98.791" y="-253.04" font-family="Times New Roman,serif" font-size="14" text-anchor="middle">MeshData</text></g><g id="node5" class="node"><title>vertex_cache_opt</title><ellipse cx="98.791" cy="-181.87" fill="none" stroke="#000" rx="65.108" ry="26.741"/><text x="98.791" y="-185.67" font-family="Times New Roman,serif" font-size="14" text-anchor="middle">Vertex Cache</text><text x="98.791" y="-170.67" font-family="Times New Roman,serif" font-size="14" text-anchor="middle">Optimization</text></g><g id="edge3" class="edge"><title>intermediate2-&gt;vertex_cache_opt</title><path fill="none" stroke="#000" d="M98.7912,-245.073C98.7912,-237.072 98.7912,-227.82 98.7912,-218.939"/><polygon fill="#000" stroke="#000" points="102.291 -218.779 98.791 -208.779 95.291 -218.779 102.291 -218.779"/></g><g id="node3" class="node"><title>intermediate3</title><polygon fill="none" stroke="#000" points="16.791 -72.5 16.791 -118.5 180.791 -118.5 180.791 -72.5 16.791 -72.5"/><text x="98.791" y="-103.3" font-family="Times New Roman,serif" font-size="14" text-anchor="middle">Asset Intermediate Format</text><polyline fill="none" stroke="#000" points="16.791 -95.5 180.791 -95.5"/><text x="98.791" y="-80.3" font-family="Times New Roman,serif" font-size="14" text-anchor="middle">MeshData</text></g><g id="node6" class="node"><title>platform_backend</title><ellipse cx="98.791" cy="-18" fill="none" stroke="#000" rx="98.583" ry="18"/><text x="98.791" y="-14.3" font-family="Times New Roman,serif" font-size="14" text-anchor="middle">Mesh Platform Backend</text></g><g id="edge5" class="edge"><title>intermediate3-&gt;platform_backend</title><path fill="none" stroke="#000" d="M98.7912,-72.2559C98.7912,-64.1817 98.7912,-54.962 98.7912,-46.4888"/><polygon fill="#000" stroke="#000" points="102.291 -46.297 98.791 -36.298 95.291 -46.298 102.291 -46.297"/></g><g id="edge2" class="edge"><title>mesh_indexing-&gt;intermediate2</title><path fill="none" stroke="#000" d="M98.7912,-327.377C98.7912,-319.193 98.7912,-310.068 98.7912,-301.519"/><polygon fill="#000" stroke="#000" points="102.291 -301.478 98.791 -291.478 95.291 -301.478 102.291 -301.478"/></g><g id="edge4" class="edge"><title>vertex_cache_opt-&gt;intermediate3</title><path fill="none" stroke="#000" d="M98.7912,-154.637C98.7912,-146.452 98.7912,-137.328 98.7912,-128.779"/><polygon fill="#000" stroke="#000" points="102.291 -128.738 98.791 -118.738 95.291 -128.738 102.291 -128.738"/></g></g></svg>